PathFileType	4	(X/Y/Z)	S01_0003_Gait_markers.trc
DataRate	CameraRate	NumFrames	NumMarkers	Units	OrigDataRate	OrigDataStartFrame	OrigNumFrames
250.000000	250.000000	4	54	mm	250.000000	235	314
Frame#	Time	HEAD_ANT			R_HEAD			L_HEAD			C7			R_BACK			L_BACK			STERNUM			R_ACROMION			R_HUM_PROX			R_HUM_ANT			R_HUM_POST			R_ELBOW_LAT			R_ELBOW_MED			R_FOREARM			R_WIRST_LAT			R_WRITS_MED			R_HAND			L_ACROMION			L_HUM_PROX			L_HUM_ANT			L_HUM_POST			L_ELBOW_LAT			L_ELBOW_MED			L_FOREARM			L_WRIST_LAT			L_WIRST_MED			L_HAND			R_ILIAC			SACRUM			L_ILIAC			R_GTROCH			R_THIGH__1			R_THIGH_2			R_THIGH_3			R_THIGH_4			R_SHANK_1			R_SHANK_2			R_SHANK_3			R_SHANK_4			R_HEEL			R_FOOT_LAT			R_FOOT_MED			L_GTROCH			L_THIGH_1			L_THIGH_2			L_THIGH_3			L_THIGH_4			L_SHANK_1			L_SHANK_2			L_SHANK_3			L_SHANK_4			L_HEEL			L_FOOT_LAT			L_FOOT_MED			
		X1	Y1	Z1	X2	Y2	Z2	X3	Y3	Z3	X4	Y4	Z4	X5	Y5	Z5	X6	Y6	Z6	X7	Y7	Z7	X8	Y8	Z8	X9	Y9	Z9	X10	Y10	Z10	X11	Y11	Z11	X12	Y12	Z12	X13	Y13	Z13	X14	Y14	Z14	X15	Y15	Z15	X16	Y16	Z16	X17	Y17	Z17	X18	Y18	Z18	X19	Y19	Z19	X20	Y20	Z20	X21	Y21	Z21	X22	Y22	Z22	X23	Y23	Z23	X24	Y24	Z24	X25	Y25	Z25	X26	Y26	Z26	X27	Y27	Z27	X28	Y28	Z28	X29	Y29	Z29	X30	Y30	Z30	X31	Y31	Z31	X32	Y32	Z32	X33	Y33	Z33	X34	Y34	Z34	X35	Y35	Z35	X36	Y36	Z36	X37	Y37	Z37	X38	Y38	Z38	X39	Y39	Z39	X40	Y40	Z40	X41	Y41	Z41	X42	Y42	Z42	X43	Y43	Z43	X44	Y44	Z44	X45	Y45	Z45	X46	Y46	Z46	X47	Y47	Z47	X48	Y48	Z48	X49	Y49	Z49	X50	Y50	Z50	X51	Y51	Z51	X52	Y52	Z52	X53	Y53	Z53	X54	Y54	Z54	

236	0.9400000000000001	1512.73095703125	1747.000122070312	-352.1858520507809	1450.357543945312	1700.602783203125	-275.514495849609	1453.582641601562	1698.404907226562	-422.0148315429684	1311.776977539062	1530.40966796875	-346.7021179199215	1240.400024414062	1333.801879882812	-275.2626037597653	1244.170532226562	1334.622192382812	-418.4856262207028	1488.817504882812	1369.724731445312	-339.4115295410153	1389.786499023438	1483.704467773438	-171.1097259521481	1354.311889648438	1323.797973632812	-76.39983367919892	1416.970336914062	1238.942626953125	-72.9424972534177	1295.5009765625	1239.688354492188	-63.32360458373996	1342.447875976562	1134.192626953125	-54.8296623229978	1320.641357421875	1128.429809570312	-135.2166595458982	1453.985717773438	956.0750732421875	-55.27329254150369	1493.972778320312	892.0607299804688	-95.86772918701152	1429.479858398438	864.9664306640625	-53.38737106323223	1504.472778320312	804.164794921875	-39.79600524902326	1396.372192382812	1484.855346679688	-511.816009521484	1383.707641601562	1315.95751953125	-607.1047363281247	1446.107055664062	1235.823608398438	-597.6610107421873	1328.050048828125	1237.437255859375	-636.2370605468748	1387.421997070312	1133.284790039063	-635.077209472656	1330.811157226562	1127.890258789063	-582.4386596679685	1507.719482421875	972.2407226562501	-591.8923339843748	1541.484619140625	920.6763305664064	-532.6016845703123	1503.62158203125	886.9016113281251	-592.9505615234373	1586.485717773438	844.9063110351564	-572.5025634765623	1394.363647460938	1083.2236328125	-170.1561584472654	1259.418212890625	1054.93310546875	-332.9399414062498	1375.613891601562	1074.238891601563	-512.654357910156	1358.500244140625	932.6129150390625	-145.9608306884764	1475.399291992188	664.373291015625	-162.7388458251952	1525.701049804688	694.5097045898438	-158.8993377685545	1556.947387695312	596.002685546875	-189.7435302734374	1493.297241210938	585.7527465820312	-181.5930328369139	1473.014770507812	373.1499633789063	-169.3612213134765	1523.50341796875	344.4287719726563	-186.6248931884765	1506.6298828125	260.9862976074219	-201.3853302001953	1445.717041015625	275.9775390625001	-186.8513031005859	1375.153198242188	68.89995574951178	-263.0068359375	1535.6689453125	33.22687530517582	-182.5021209716797	1585.454833984375	44.77496719360357	-271.9473876953125	1334.6162109375	961.5242919921876	-512.5053100585935	1379.461791992188	669.1037597656251	-490.2496032714842	1329.2880859375	696.2032470703126	-505.1668090820311	1300.822631835938	598.9158325195314	-468.8519592285155	1364.652465820312	592.7956542968751	-464.0304565429686	1281.822875976562	331.3873596191407	-445.6017150878906	1222.232421875	318.7095947265626	-445.3646545410156	1207.177001953125	234.9858703613282	-424.7875061035156	1271.320678710938	232.276092529297	-418.8775634765624	1144.648193359375	57.70666885375984	-342.8144226074219	1313.189575195312	19.96738815307626	-423.6874084472656	1356.901489257812	27.07483482360847	-319.6099853515625	
237	0.9440000000000001	1518.136962890625	1746.324829101562	-351.9833679199215	1455.648315429688	1699.8798828125	-275.4318542480465	1459.252807617188	1697.848022460938	-421.9003906249996	1317.143188476562	1529.765747070312	-346.7208862304684	1245.534545898438	1333.021362304688	-275.7277526855466	1249.669067382812	1333.979614257812	-418.812561035156	1494.113891601562	1369.05078125	-339.4626464843747	1394.788330078125	1482.971801757812	-171.1625976562497	1358.83154296875	1323.044555664062	-76.65514373779267	1421.53515625	1238.260986328125	-72.91412353515598	1300.074951171875	1238.9619140625	-63.68214416503879	1347.075073242188	1133.416381835938	-55.04983520507788	1325.554077148438	1127.5810546875	-135.3217010498044	1458.436279296875	955.3997192382812	-54.36096954345682	1498.724609375	891.5345458984375	-95.40540313720683	1433.904663085938	864.3211669921875	-53.208786010742	1508.883544921875	803.5829467773438	-39.40221023559553	1401.919555664062	1484.251098632812	-511.8293457031247	1389.595947265625	1315.31005859375	-607.1100463867184	1452.269897460938	1235.29931640625	-597.7236328124998	1334.390869140625	1236.8125	-636.6259155273435	1393.873413085938	1132.748168945313	-635.346496582031	1336.934448242188	1126.958984375	-582.977355957031	1514.546142578125	972.2456054687501	-591.3695678710935	1548.052368164062	920.7553100585939	-531.981262207031	1510.925903320312	887.4199829101564	-593.4408569335935	1593.87744140625	845.0875854492189	-571.4112548828123	1399.570678710938	1082.423950195312	-170.0700073242185	1264.694458007812	1054.435668945312	-332.8279113769529	1380.83984375	1073.58544921875	-512.7482910156248	1364.389770507812	932.1329956054688	-146.372116088867	1481.074340820312	663.642333984375	-163.141159057617	1531.17724609375	694.0596313476562	-159.1662597656249	1562.73388671875	595.4846801757812	-190.2956085205077	1499.0234375	585.0988159179688	-182.641159057617	1482.82568359375	371.7257690429688	-170.3036804199218	1533.839721679688	344.3479309082032	-187.1159515380859	1519.54443359375	260.4744567871094	-201.5596008300781	1457.771728515625	274.0688781738282	-187.471206665039	1392.131713867188	65.01020812988287	-263.2755432128906	1553.871459960938	32.78562164306645	-183.3914337158203	1602.7763671875	45.35173416137702	-273.171142578125	1339.31689453125	961.3223876953126	-512.5186767578123	1382.051879882812	668.7584228515626	-490.4556884765623	1332.196411132812	695.9779052734376	-505.2351989746092	1303.441162109375	599.7176513671876	-469.4996337890624	1366.626342773438	592.2891845703126	-463.7285766601561	1282.861450195312	331.926239013672	-446.0947265624999	1223.001953125	319.0670776367189	-445.3203735351562	1207.77685546875	235.4127502441407	-424.7586059570312	1271.79931640625	232.496322631836	-418.9562377929687	1144.813232421875	58.37593078613289	-342.6294250488281	1313.043090820312	20.04286384582529	-423.5923767089844	1356.868530273438	27.23087692260749	-319.7566528320312	
238	0.9480000000000001	1523.578002929688	1745.505981445312	-351.8758850097652	1461.118774414062	1698.992309570312	-275.1818237304684	1464.54443359375	1697.139404296875	-421.7447509765621	1322.489501953125	1529.130737304688	-346.8151550292965	1250.7724609375	1332.286987304688	-276.0405578613278	1254.996459960938	1333.231689453125	-418.881652832031	1499.501220703125	1368.177734375	-339.340637207031	1399.873901367188	1482.245971679688	-171.2149658203122	1363.377807617188	1322.2705078125	-76.91666412353486	1426.140991210938	1237.428100585938	-72.91416931152317	1304.449584960938	1238.40185546875	-64.16419219970676	1351.516723632812	1132.688232421875	-55.26327133178686	1330.283935546875	1126.870483398438	-135.5880126953122	1463.02490234375	954.7569580078125	-54.21877288818338	1503.476318359375	890.8457641601562	-95.06526184082011	1438.4755859375	863.4974365234375	-53.1234588623045	1513.250122070312	802.9313354492188	-38.94550704956037	1407.4853515625	1483.547607421875	-511.9585266113278	1395.54296875	1314.677734375	-607.1513061523434	1458.2412109375	1234.755004882813	-597.5236206054685	1340.583740234375	1236.105834960938	-637.0348510742185	1400.302734375	1132.142700195313	-635.5828857421873	1343.106689453125	1126.170654296875	-583.3985595703123	1521.453491210938	972.0878906250001	-590.9977416992185	1554.778930664062	920.8325805664064	-531.3058471679685	1518.1279296875	886.7090454101564	-592.0690917968748	1601.158325195312	845.4224853515626	-570.3624267578123	1404.693237304688	1081.560546875	-170.2221527099607	1269.97021484375	1053.871459960938	-332.861145019531	1385.963256835938	1072.830810546875	-512.816955566406	1369.670654296875	931.4367065429688	-146.7062072753904	1486.645263671875	662.8693237304688	-163.8943481445311	1536.593627929688	693.4315795898438	-159.7554931640624	1568.531494140625	595.1063232421875	-190.9712524414061	1504.810791015625	584.5006103515625	-183.331329345703	1492.321166992188	370.0982360839844	-171.0116729736327	1544.2490234375	343.9672241210938	-187.757339477539	1531.224853515625	259.9746704101563	-202.1103210449218	1469.757446289062	272.0770568847657	-188.0831451416015	1409.148071289062	61.49337768554693	-263.5145263671875	1571.877075195312	32.30043792724614	-184.1797790527344	1619.945922851562	45.76548004150397	-274.5328979492188	1344.104248046875	960.6596679687501	-512.1774902343748	1384.798461914062	668.3615722656251	-490.5836181640623	1334.9267578125	695.8042602539064	-505.1332397460936	1305.543334960938	599.6405639648439	-469.4356079101561	1369.064331054688	592.0200805664064	-464.0125732421874	1283.63134765625	332.1179504394532	-446.0329284667968	1223.693969726562	319.543426513672	-445.3802185058593	1208.390747070312	235.7802734375001	-424.6511840820312	1272.296997070312	232.7140197753907	-419.0611572265624	1144.933227539062	58.92649078369148	-342.3369750976562	1312.901123046875	20.07572555542001	-423.5120239257812	1356.780883789062	27.15645790100105	-319.5260314941406	
239	0.9520000000000001	1529.079467773438	1744.758178710938	-351.7818603515621	1466.541625976562	1698.201904296875	-275.0812072753902	1470.138549804688	1696.536987304688	-421.5624999999996	1327.90380859375	1528.4951171875	-347.0278625488278	1256.103271484375	1331.600219726562	-276.3669433593747	1260.519897460938	1332.544067382812	-418.8892517089841	1504.730102539062	1367.332641601562	-339.429504394531	1404.971557617188	1481.384155273438	-171.2936248779293	1368.099487304688	1321.5537109375	-77.08838653564423	1430.810180664062	1236.582885742188	-72.7502136230466	1309.053588867188	1237.562133789062	-64.5999679565427	1355.729248046875	1131.9990234375	-55.50981903076147	1335.027465820312	1126.0712890625	-135.957580566406	1467.469482421875	953.9141235351562	-53.84672164916971	1508.19970703125	890.0445556640625	-94.64803314208964	1442.975952148438	862.6771850585938	-53.03035354614239	1517.701782226562	802.15869140625	-38.38846206665021	1413.398681640625	1482.604614257812	-511.9992675781247	1401.716064453125	1314.0283203125	-607.3060302734372	1464.235717773438	1234.119384765625	-597.357727050781	1346.804809570312	1235.303100585938	-637.376525878906	1406.692993164062	1131.457641601563	-635.937316894531	1349.445068359375	1125.393310546875	-583.9325561523435	1528.373779296875	972.0729370117189	-590.526428222656	1561.514404296875	920.8316650390626	-530.6002807617185	1525.499755859375	887.0051879882814	-592.3665771484373	1608.446655273438	845.5296630859376	-569.3616943359373	1409.909790039062	1080.635498046875	-170.271286010742	1275.269653320312	1053.26953125	-332.7629394531248	1391.567626953125	1071.995483398438	-512.9163818359373	1374.83251953125	930.58349609375	-146.9677276611326	1492.100219726562	662.1646118164062	-164.3568115234374	1542.110717773438	692.6551513671875	-159.9458923339842	1574.31103515625	594.6264038085938	-191.6156921386717	1510.232543945312	583.6720581054688	-184.224884033203	1502.021240234375	368.8917541503907	-171.5797729492187	1554.4267578125	343.9134521484376	-188.5098724365234	1544.128295898438	259.6513061523438	-202.2659301757812	1481.69677734375	269.9530029296876	-188.7319946289062	1426.344604492188	58.05093002319342	-264.2384033203125	1589.914428710938	32.1294326782227	-185.39208984375	1637.335693359375	46.60172271728522	-275.6573181152344	1349.069213867188	960.2315673828126	-512.310607910156	1387.599243164062	667.9312744140626	-490.8233642578123	1337.624389648438	695.8861694335939	-505.2601318359373	1307.921997070312	599.8256225585939	-469.4097595214843	1371.226928710938	591.6979370117189	-464.3833618164061	1284.48876953125	332.2767028808595	-446.2406311035156	1224.512573242188	320.0115051269532	-445.3740844726562	1208.989013671875	236.334442138672	-424.4546813964843	1272.821166992188	232.8446502685548	-419.1832580566406	1145.090454101562	59.50546264648445	-342.0226745605469	1312.799072265625	20.07817077636728	-423.4208068847656	1356.823486328125	27.19270324707038	-319.5762634277344	
